<svg id="Layer_1" data-name="Layer 1" xmlns="http://www.w3.org/2000/svg" viewBox="0 0 250 75"><g id="E1Mekj"><path d="M25.17,40.47h-8V35.72H28.57V48.65H26.05V42.79a5.1,5.1,0,0,0-.36.48c-2.8,5.94-8.43,6.72-13.34,4.9-5.14-1.9-7.92-6.78-7.25-12.35A11.3,11.3,0,0,1,15,26.13c4.51-.58,8.47.54,11.44,4.17a20.06,20.06,0,0,1,1.79,3.09L28,33.6c-1.25,0-2.5,0-3.74,0-.19,0-.39-.22-.56-.36-3.41-2.77-9.54-2.9-13-.27A5.48,5.48,0,0,0,10.84,42a10.56,10.56,0,0,0,7.77,1.74A10.46,10.46,0,0,0,24.2,41.7c.4-.3.79-.61,1.18-.92Z"/><path d="M202.2,26.25V48.66h-3.13V33.82a8.79,8.79,0,0,0-1.64,0c-.25,0-.49.39-.62.65q-2.31,4.56-4.56,9.14a1,1,0,0,1-1.08.67,11.06,11.06,0,0,0-1.82,0c-.55,0-.79-.19-1-.65-1.43-2.95-2.92-5.87-4.32-8.83-.39-.8-.85-1.17-1.72-1a6.52,6.52,0,0,1-.68,0v14.8h-3.22V26.25c1.7,0,3.38,0,5.07,0,.2,0,.47.32.6.55,1.68,3.19,3.36,6.38,5,9.58a1.11,1.11,0,0,0,1.14.75,1.07,1.07,0,0,0,1.08-.71c1.66-3.2,3.36-6.38,5-9.58a1,1,0,0,1,1-.62C198.94,26.27,200.53,26.25,202.2,26.25Z"/><path d="M45.84,41.12,51,48.69c-1.42,0-2.71,0-4,0-.18,0-.38-.29-.51-.49l-4.16-6c-.15-.21-.39-.49-.6-.49-2,0-4,0-6.12,0v7H32.37V26.28H42.76a7.66,7.66,0,0,1,3.42,14.64C46.09,41,46,41,45.84,41.12ZM35.61,36.58c2.71,0,5.33,0,7.94,0A6.83,6.83,0,0,0,45.8,36a2.2,2.2,0,0,0-.06-4.16,8.41,8.41,0,0,0-2.56-.53c-2.37-.08-4.74-.05-7.1-.05a4.45,4.45,0,0,0-.47.05Z"/><path d="M122,26.33h3.23V48.69c-1.47,0-2.92,0-4.37,0-.19,0-.4-.27-.54-.46-3.12-4.34-6.25-8.67-9.34-13a1.54,1.54,0,0,0-1.91-.76V48.65h-3.22V26.29c1.44,0,2.89,0,4.34,0,.18,0,.38.29.52.49L120.21,40a1.77,1.77,0,0,0,.56.59c.74.34,1.22,0,1.22-.83V26.33Z"/><path d="M226.41,41.77h3.29a2.34,2.34,0,0,0,1.65,1.67,13,13,0,0,0,8.73.16c.69-.22,1.47-.55,1.46-1.43s-.78-1.19-1.44-1.36c-1.74-.46-3.51-.85-5.29-1.17a14.85,14.85,0,0,1-5.39-1.86c-3.59-2.25-3.27-7.17-.67-9.45a9.3,9.3,0,0,1,5.4-2.29,11.43,11.43,0,0,1,6.14.87,6.76,6.76,0,0,1,4.21,5.16,5.79,5.79,0,0,1,0,.84h-3.32a2.11,2.11,0,0,0-1.57-1.53,12.79,12.79,0,0,0-8-.11c-.68.2-1.43.49-1.45,1.34s.74,1.19,1.4,1.37c1.63.42,3.29.68,4.92,1.1a30.19,30.19,0,0,1,5.12,1.5c4.54,2.08,4,7.76,1,10.13a11.27,11.27,0,0,1-8.47,2.21,9.32,9.32,0,0,1-6.15-2.9A5.77,5.77,0,0,1,226.41,41.77Z"/><path d="M153,48.69c.63-1.65,1.22-3.17,1.8-4.7,2.17-5.67,4.35-11.34,6.5-17a.9.9,0,0,1,1-.7c1.56,0,3.12,0,4.69,0a.69.69,0,0,1,.77.52q4.05,10.71,8.13,21.4a4.94,4.94,0,0,1,.12.51c-1.08,0-2.1,0-3.13,0-.19,0-.44-.28-.53-.48-.41-1-.74-2-1.17-2.95a.93.93,0,0,0-.68-.48c-3.86,0-7.71,0-11.57,0a.69.69,0,0,0-.76.55c-.35,1-.76,1.92-1.12,2.89a.66.66,0,0,1-.76.53C155.23,48.67,154.18,48.69,153,48.69Zm16-8.95c-.11-.33-.19-.57-.28-.8l-2.22-5.61c-.62-1.59-.62-1.57-2.33-1.57a.8.8,0,0,0-.89.59c-.87,2.25-1.78,4.49-2.66,6.74-.08.2-.12.41-.2.65Z"/><path d="M206.56,26.28h2.31c2.77,0,5.55,0,8.32,0a7.67,7.67,0,0,1,.14,15.33c-2.22,0-4.44,0-6.66,0h-.89v7h-3.22Zm3.24,10.18c2.95,0,5.84,0,8.72,0a4.1,4.1,0,0,0,1.77-.6,2.14,2.14,0,0,0,0-3.85,5.48,5.48,0,0,0-2.29-.65c-2.67-.09-5.34-.05-8-.06,0,0-.08,0-.14.1Z"/><path d="M83,40.16v8.49H79.77V26.32H95.12v4.9H83v4H93.83v5Z"/><path d="M76.64,26.32v4.9H64.53v4H75.34v5H64.48v8.49H61.27V26.32Z"/><path d="M139.87,43.73h11.5v4.92H136.72V26.33h3.15Z"/><path d="M53.87,26.32H57V48.66H53.87Z"/><path d="M98.31,26.31h3.11V48.64H98.31Z"/></g></svg>